<svg xmlns="http://www.w3.org/2000/svg" xmlns:xlink="http://www.w3.org/1999/xlink" version="1.1" x="0px" y="0px" viewBox="0 0 512 640" style="enable-background:new 0 0 512 512;" xml:space="preserve"><g><path d="M202.8,191.2l-8.9-9.7h-31.4l-9.5,9.5v164.8h49.8V191.2z M187.9,331.9h-22.5v-22.5h22.5V331.9z    M187.9,297.5h-22.5V275h22.5V297.5z M187.9,263.7h-22.5v-22.5h22.5V263.7z M187.9,229.9h-22.5v-22.5h22.5V229.9z"/><path d="M249.6,302.7h45v53.1h64.5V157.5l-9.5-9.5H225.6l-6.8,9.5v198.3h30.8V302.7z M323.3,182.8h22.5v22.5h-22.5   V182.8z M323.3,216.5h22.5V239h-22.5V216.5z M323.3,250.3h22.5v22.5h-22.5V250.3z M278.2,182.8h22.5v22.5h-22.5V182.8z    M278.2,216.5h22.5V239h-22.5V216.5z M278.2,250.3h22.5v22.5h-22.5V250.3z M233.2,182.8h22.5v22.5h-22.5V182.8z M233.2,216.5h22.5   V239h-22.5V216.5z M233.2,250.3h22.5v22.5h-22.5V250.3z"/><path d="M432.8,79.2C385.6,32,322.8,6,256,6S126.4,32,79.2,79.2C32,126.4,6,189.2,6,256s26,129.6,73.2,176.8   C126.4,480,189.2,506,256,506s129.6-26,176.8-73.2C480,385.6,506,322.8,506,256S480,126.4,432.8,79.2z M373.4,370.1H138.6v-11.3   h8.2V188.4l13-13h36.6l12.4,13.4v166.9h3.8V155.5l9.8-13.6h129.6l13.1,13v203.8h8.2V370.1z"/></g><text x="0" y="527" fill="#000000" font-size="5px" font-weight="bold" font-family="'Helvetica Neue', Helvetica, Arial-Unicode, Arial, Sans-serif">Created by QualityIcons</text><text x="0" y="532" fill="#000000" font-size="5px" font-weight="bold" font-family="'Helvetica Neue', Helvetica, Arial-Unicode, Arial, Sans-serif">from the Noun Project</text></svg>